<svg xmlns="http://www.w3.org/2000/svg" version="1.1" xmlns:xlink="http://www.w3.org/1999/xlink" xmlns:svgjs="http://svgjs.dev/svgjs" width="1500" height="1500" viewBox="0 0 1500 1500"><rect width="1500" height="1500" fill="#dedede"></rect><g transform="matrix(0.6666666666666666,0,0,0.6666666666666666,249.39436519522388,632.5530214091873)"><svg viewBox="0 0 396 93" data-background-color="#dedede" preserveAspectRatio="xMidYMid meet" height="352" width="1500" xmlns="http://www.w3.org/2000/svg" xmlns:xlink="http://www.w3.org/1999/xlink"><g id="tight-bounds" transform="matrix(1,0,0,1,0.24008861730862918,0.04511913268117951)"><svg viewBox="0 0 395.52 92.90972333994272" height="92.90972333994272" width="395.52"><g><svg viewBox="0 0 395.52 92.90972333994272" height="92.90972333994272" width="395.52"><g><svg viewBox="0 0 395.52 92.90972333994272" height="92.90972333994272" width="395.52"><g id="textblocktransform"><svg viewBox="0 0 395.52 92.90972333994272" height="92.90972333994272" width="395.52" id="textblock"><g><svg viewBox="0 0 395.52 92.90972333994272" height="92.90972333994272" width="395.52"><path d="M394.594 19.927C392.735 10.283 387.435 7.602 387.435 7.602 371.165-2.331 350.86-0.19 332.619 1.237 300.414 1.295 268.339 3.417 236.208 4.555 168.767 4.728 100.749 1.874 33.643 8.914 27.339 11.074-6.54 9.338 1.121 21.162 3.129 26.08 10.456 31.539 10.232 36.052 11.236 36.843 12.631 35.03 13.226 36.168 15.309 39.235 18.711 37.788 21.501 39.601 17.614 44.442 20.403 48.474 23.062 52.698 18.377 53.797 12.371 53.276 9.675 56.922 9.396 59.564 7.89 59.063 6.235 58.947 5.026 58.87 2.59 59.159 2.999 59.989 4.394 62.824-1.594 64.463 2.162 67.241-0.422 70.25 3.948 72.854 3.353 76.113 3.278 76.769 3.687 77.328 4.338 77.483 7.22 78.312 3.018 79.932 3.464 81.688 33.029 93.685 65.104 85.391 95.394 90.907 103.259 87.05 97.346 92.277 100.489 91.467 102.943 90.521 104.728 94.437 107.499 92.219 107.927 91.582 107.276 90.078 108.8 90.367 109.6 90.521 110.307 90.483 110.418 89.596 110.586 88.265 109.117 89.094 108.726 88.4 112.947 84.889 111.906 93.241 115.866 92.894 115.68 91.872 114.528 90.406 116.889 90.599 119.232 89.133 119.306 87.918 121.389 91.216 121.463 91.929 121.835 92.431 122.43 92.778 128.938 89.191 135.409 94.051 142.233 92.431 146.417 90.656 150.433 93.395 154.672 92.72 156.16 92.18 157.666 91.216 159.098 92.836 176.632 93.183 195.319 91.737 211.943 92.894 256.364 90.734 303.836 93.781 350.674 90.926 361.719 89.827 373.192 88.265 383.958 87.011 383.958 87.011 392.679 83.578 392.679 68.147S394.538 54.646 394.817 42.359C395.096 30.073 396.398 29.571 394.538 19.927Z" opacity="1" fill="#000000" data-fill-palette-color="tertiary"></path><g transform="matrix(1,0,0,1,55.76832,26.230666666666668)"><svg width="283.98335999999995" viewBox="0.5 -34.25 302.57 43.1" height="40.44839000660938" data-palette-color="#dedede"><path d="M21.75-32.1L32-0.6 32-0.45 23.5-0.45Q23.15-1.65 22.68-3.2 22.2-4.75 21.65-6.5L21.65-6.5 10.85-6.5Q9.85-3 9-0.45L9-0.45 0.5-0.45 0.5-0.55 10.75-32.1 21.75-32.1ZM16.35-26.4L16.15-26.4Q15.65-23.85 14.7-20.2 13.75-16.55 12.7-12.75L12.7-12.75 19.85-12.75Q18.75-16.55 17.8-20.2 16.85-23.85 16.35-26.4L16.35-26.4ZM33.75-11.35L33.75-11.35Q33.75-15.85 34.97-18.9 36.2-21.95 38.95-23.5 41.7-25.05 46.35-25.05L46.35-25.05Q50.05-25.05 52.87-24.88 55.7-24.7 58.3-24.45L58.3-24.45 58.45-24.35 58.45 8.85 50.45 8.85 50.45-4 50.3-4Q49.65-2 47.8-1 45.95 0 43.3 0L43.3 0Q38.85 0 36.3-2.83 33.75-5.65 33.75-11.35ZM41.55-12.55L41.55-12.55Q41.55-9.65 42.42-8.22 43.3-6.8 45.9-6.8L45.9-6.8Q47.9-6.8 49.17-8.05 50.45-9.3 50.45-12.2L50.45-12.2 50.45-18Q49.6-18.1 48.57-18.18 47.55-18.25 46.65-18.25L46.65-18.25Q43.9-18.25 42.72-16.98 41.55-15.7 41.55-12.55ZM72-33.85L72-33.85Q72.15-32.05 72.15-30.85L72.15-30.85Q72.15-30.15 72.12-29.43 72.1-28.7 72-27.8L72-27.8Q70.95-27.6 69.95-27.5 68.95-27.4 67.95-27.4L67.95-27.4Q67-27.4 66.02-27.5 65.05-27.6 64.05-27.8L64.05-27.8Q63.95-28.65 63.9-29.38 63.85-30.1 63.85-30.8L63.85-30.8Q63.85-31.45 63.9-32.2 63.95-32.95 64.05-33.85L64.05-33.85Q65.05-34.1 66.07-34.18 67.1-34.25 68.1-34.25L68.1-34.25Q69.05-34.25 70.02-34.18 71-34.1 72-33.85ZM72-24.8L72-0.45 64-0.45 64-24.8 72-24.8ZM85.54-34.1L85.54-0.45 77.54-0.45 77.54-34.1 85.54-34.1ZM99.54-34.1L99.54-0.45 91.54-0.45 91.54-34.1 99.54-34.1ZM113.09-33.85L113.09-33.85Q113.24-32.05 113.24-30.85L113.24-30.85Q113.24-30.15 113.21-29.43 113.19-28.7 113.09-27.8L113.09-27.8Q112.04-27.6 111.04-27.5 110.04-27.4 109.04-27.4L109.04-27.4Q108.09-27.4 107.11-27.5 106.14-27.6 105.14-27.8L105.14-27.8Q105.04-28.65 104.99-29.38 104.94-30.1 104.94-30.8L104.94-30.8Q104.94-31.45 104.99-32.2 105.04-32.95 105.14-33.85L105.14-33.85Q106.14-34.1 107.16-34.18 108.19-34.25 109.19-34.25L109.19-34.25Q110.14-34.25 111.11-34.18 112.09-34.1 113.09-33.85ZM113.09-24.8L113.09-0.45 105.09-0.45 105.09-24.8 113.09-24.8ZM156.68-2.05L148.08-2.05Q147.23-4.75 146.36-7.8 145.48-10.85 144.63-13.85 143.78-16.85 143.08-19.45 142.38-22.05 141.88-23.95 141.38-25.85 141.18-26.65L141.18-26.65 140.98-26.6Q141.13-25.7 141.23-24.23 141.33-22.75 141.38-21.13 141.43-19.5 141.43-18.15L141.43-18.15 141.43-0.45 133.78-0.45 133.78-32.1 147.18-32.1Q147.88-29.45 148.66-26.53 149.43-23.6 150.21-20.73 150.98-17.85 151.58-15.28 152.18-12.7 152.43-10.8L152.43-10.8 152.53-10.8Q152.78-12.7 153.36-15.25 153.93-17.8 154.68-20.7 155.43-23.6 156.23-26.53 157.03-29.45 157.68-32.1L157.68-32.1 170.88-32.1 170.88-0.45 163.33-0.45 163.33-18.15Q163.33-19.5 163.38-21.13 163.43-22.75 163.56-24.23 163.68-25.7 163.78-26.6L163.78-26.6 163.58-26.65Q163.38-25.85 162.88-23.95 162.38-22.05 161.66-19.43 160.93-16.8 160.08-13.8 159.23-10.8 158.36-7.78 157.48-4.75 156.68-2.05L156.68-2.05ZM186.28-25.05L186.28-25.05Q191.08-25.05 194.03-24.05 196.98-23.05 198.36-20.38 199.73-17.7 199.73-12.65L199.73-12.65 199.73-0.45 192.48-0.45 192.23-2.75 192.08-2.75Q191.13-1.5 189.13-0.75 187.13 0 183.93 0L183.93 0Q175.28 0 175.28-8.1L175.28-8.1Q175.28-11.55 177.56-13.53 179.83-15.5 184.73-15.5L184.73-15.5 192.13-15.5Q191.78-17.6 190.33-18.32 188.88-19.05 185.38-19.05L185.38-19.05Q183.18-19.05 181.06-18.73 178.93-18.4 177.33-18L177.33-18 177.18-18.1 177.23-23.9Q178.23-24.2 179.78-24.48 181.33-24.75 183.06-24.9 184.78-25.05 186.28-25.05ZM185.98-5.9L185.98-5.9Q189.08-5.9 190.63-6.68 192.18-7.45 192.23-9.15L192.23-9.15 192.23-10.4 186.58-10.4Q184.38-10.4 183.51-9.78 182.63-9.15 182.63-8.1L182.63-8.1Q182.63-6.85 183.53-6.38 184.43-5.9 185.98-5.9ZM212.98-11.75L212.98-0.45 204.98-0.45 204.98-34.1 212.98-34.1 212.98-14.5 213.08-14.5 219.38-24.8 228.18-24.8 228.18-24.6 220.78-13.1 220.78-12.9 229.38-0.45 220.18-0.45 213.13-11.7 212.98-11.75ZM232.33-7.75L232.33-7.75 232.33-18.25 229.33-18.25 229.33-24.75 233.08-24.75 234.58-30.7 240.33-30.7 240.33-24.75 245.78-24.75 245.78-18.25 240.33-18.25 240.33-9.5Q240.33-8.1 240.68-7.58 241.03-7.05 242.28-7.05L242.28-7.05Q243.08-7.05 243.98-7.13 244.88-7.2 245.78-7.3L245.78-7.3 245.93-7.2 245.93-0.7Q243.53 0 239.58 0L239.58 0Q235.63 0 233.98-1.8 232.33-3.6 232.33-7.75ZM259.67-25.05L259.67-25.05Q264.47-25.05 267.42-24.05 270.37-23.05 271.75-20.38 273.12-17.7 273.12-12.65L273.12-12.65 273.12-0.45 265.87-0.45 265.62-2.75 265.47-2.75Q264.52-1.5 262.52-0.75 260.52 0 257.32 0L257.32 0Q248.67 0 248.67-8.1L248.67-8.1Q248.67-11.55 250.95-13.53 253.22-15.5 258.12-15.5L258.12-15.5 265.52-15.5Q265.17-17.6 263.72-18.32 262.27-19.05 258.77-19.05L258.77-19.05Q256.57-19.05 254.45-18.73 252.32-18.4 250.72-18L250.72-18 250.57-18.1 250.62-23.9Q251.62-24.2 253.17-24.48 254.72-24.75 256.45-24.9 258.17-25.05 259.67-25.05ZM259.37-5.9L259.37-5.9Q262.47-5.9 264.02-6.68 265.57-7.45 265.62-9.15L265.62-9.15 265.62-10.4 259.97-10.4Q257.77-10.4 256.9-9.78 256.02-9.15 256.02-8.1L256.02-8.1Q256.02-6.85 256.92-6.38 257.82-5.9 259.37-5.9ZM303.07-13.7L303.07-13.7Q303.07-6.95 300.32-3.48 297.57 0 290.97 0L290.97 0Q287.27 0 284.1-0.28 280.92-0.55 278.52-0.95L278.52-0.95 278.37-1.05 278.37-34.1 286.37-34.1 286.37-21.05 286.57-21.05Q287.27-22.85 288.89-23.95 290.52-25.05 293.52-25.05L293.52-25.05Q303.07-25.05 303.07-13.7ZM286.37-12.85L286.37-12.85 286.37-7Q287.57-6.8 289.17-6.8L289.17-6.8Q291.52-6.8 292.85-7.23 294.17-7.65 294.72-8.9 295.27-10.15 295.27-12.5L295.27-12.5Q295.27-15.45 294.42-16.85 293.57-18.25 290.92-18.25L290.92-18.25Q288.92-18.25 287.64-17.03 286.37-15.8 286.37-12.85Z" opacity="1" transform="matrix(1,0,0,1,0,0)" fill="#dedede" class="wordmark-text-0" data-fill-palette-color="quaternary" id="text-0"></path></svg></g></svg></g></svg></g></svg></g><g></g></svg></g><defs></defs></svg><rect width="395.52" height="92.90972333994272" fill="none" stroke="none" visibility="hidden"></rect></g></svg></g></svg>